%TF.GenerationSoftware,KiCad,Pcbnew,(6.0.6)*%
%TF.CreationDate,2023-03-09T17:56:09+01:00*%
%TF.ProjectId,dc_block,64635f62-6c6f-4636-9b2e-6b696361645f,rev?*%
%TF.SameCoordinates,Original*%
%TF.FileFunction,Copper,L2,Bot*%
%TF.FilePolarity,Positive*%
%FSLAX46Y46*%
G04 Gerber Fmt 4.6, Leading zero omitted, Abs format (unit mm)*
G04 Created by KiCad (PCBNEW (6.0.6)) date 2023-03-09 17:56:09*
%MOMM*%
%LPD*%
G01*
G04 APERTURE LIST*
%TA.AperFunction,ComponentPad*%
%ADD10R,2.400000X2.400000*%
%TD*%
%TA.AperFunction,ComponentPad*%
%ADD11C,2.400000*%
%TD*%
%TA.AperFunction,SMDPad,CuDef*%
%ADD12R,4.500000X2.000000*%
%TD*%
%TA.AperFunction,ViaPad*%
%ADD13C,0.500000*%
%TD*%
%TA.AperFunction,ViaPad*%
%ADD14C,0.800000*%
%TD*%
G04 APERTURE END LIST*
D10*
%TO.P,C1,1*%
%TO.N,Net-(C1-Pad1)*%
X111800000Y-90000000D03*
D11*
%TO.P,C1,2*%
%TO.N,Net-(C1-Pad2)*%
X119300000Y-90000000D03*
%TD*%
D12*
%TO.P,J1,2,Ext*%
%TO.N,GND*%
X102750000Y-87500000D03*
X102750000Y-92500000D03*
%TD*%
%TO.P,J2,2,Ext*%
%TO.N,GND*%
X131250000Y-87500000D03*
X131250000Y-92500000D03*
%TD*%
D13*
%TO.N,GND*%
X127600000Y-91400000D03*
X127600000Y-88600000D03*
X124400000Y-90000000D03*
X125600000Y-90000000D03*
X125000000Y-90000000D03*
D14*
X131250000Y-94000000D03*
X128400000Y-92500000D03*
X131250000Y-86000000D03*
X104500000Y-86000000D03*
X102750000Y-86000000D03*
X104500000Y-94000000D03*
X102750000Y-94000000D03*
X133000000Y-94000000D03*
X101000000Y-94000000D03*
X133000000Y-86000000D03*
X105600000Y-87800000D03*
X101000000Y-86000000D03*
X129500000Y-94000000D03*
X129500000Y-86000000D03*
X128400000Y-87800000D03*
%TD*%
%TA.AperFunction,Conductor*%
%TO.N,GND*%
G36*
X133346288Y-82518954D02*
G01*
X133427070Y-82572930D01*
X133481046Y-82653712D01*
X133500000Y-82749000D01*
X133500000Y-86051000D01*
X133481046Y-86146288D01*
X133427070Y-86227070D01*
X133346288Y-86281046D01*
X133251000Y-86300000D01*
X131524527Y-86300000D01*
X131504069Y-86304069D01*
X131500000Y-86324527D01*
X131500000Y-88675473D01*
X131504069Y-88695931D01*
X131524527Y-88700000D01*
X133251000Y-88700000D01*
X133346288Y-88718954D01*
X133427070Y-88772930D01*
X133481046Y-88853712D01*
X133500000Y-88949000D01*
X133500000Y-91051000D01*
X133481046Y-91146288D01*
X133427070Y-91227070D01*
X133346288Y-91281046D01*
X133251000Y-91300000D01*
X131524527Y-91300000D01*
X131504069Y-91304069D01*
X131500000Y-91324527D01*
X131500000Y-93675473D01*
X131504069Y-93695931D01*
X131524527Y-93700000D01*
X133251000Y-93700000D01*
X133346288Y-93718954D01*
X133427070Y-93772930D01*
X133481046Y-93853712D01*
X133500000Y-93949000D01*
X133500000Y-97251000D01*
X133481046Y-97346288D01*
X133427070Y-97427070D01*
X133346288Y-97481046D01*
X133251000Y-97500000D01*
X100749000Y-97500000D01*
X100653712Y-97481046D01*
X100572930Y-97427070D01*
X100518954Y-97346288D01*
X100500000Y-97251000D01*
X100500000Y-93949000D01*
X100518954Y-93853712D01*
X100572930Y-93772930D01*
X100653712Y-93718954D01*
X100749000Y-93700000D01*
X102475473Y-93700000D01*
X102495931Y-93695931D01*
X102500000Y-93675473D01*
X103000000Y-93675473D01*
X103004069Y-93695931D01*
X103024527Y-93700000D01*
X105007469Y-93700000D01*
X105031691Y-93697615D01*
X105053983Y-93693180D01*
X105098428Y-93674770D01*
X105123799Y-93657818D01*
X105157818Y-93623799D01*
X105174770Y-93598428D01*
X105193180Y-93553983D01*
X105197615Y-93531691D01*
X105200000Y-93507469D01*
X128800000Y-93507469D01*
X128802385Y-93531691D01*
X128806820Y-93553983D01*
X128825230Y-93598428D01*
X128842182Y-93623799D01*
X128876201Y-93657818D01*
X128901572Y-93674770D01*
X128946017Y-93693180D01*
X128968309Y-93697615D01*
X128992531Y-93700000D01*
X130975473Y-93700000D01*
X130995931Y-93695931D01*
X131000000Y-93675473D01*
X131000000Y-92774527D01*
X130995931Y-92754069D01*
X130975473Y-92750000D01*
X128824527Y-92750000D01*
X128804069Y-92754069D01*
X128800000Y-92774527D01*
X128800000Y-93507469D01*
X105200000Y-93507469D01*
X105200000Y-92774527D01*
X105195931Y-92754069D01*
X105175473Y-92750000D01*
X103024527Y-92750000D01*
X103004069Y-92754069D01*
X103000000Y-92774527D01*
X103000000Y-93675473D01*
X102500000Y-93675473D01*
X102500000Y-92225473D01*
X103000000Y-92225473D01*
X103004069Y-92245931D01*
X103024527Y-92250000D01*
X105175473Y-92250000D01*
X105195931Y-92245931D01*
X105200000Y-92225473D01*
X128800000Y-92225473D01*
X128804069Y-92245931D01*
X128824527Y-92250000D01*
X130975473Y-92250000D01*
X130995931Y-92245931D01*
X131000000Y-92225473D01*
X131000000Y-91324527D01*
X130995931Y-91304069D01*
X130975473Y-91300000D01*
X128992531Y-91300000D01*
X128968309Y-91302385D01*
X128946017Y-91306820D01*
X128901572Y-91325230D01*
X128876201Y-91342182D01*
X128842182Y-91376201D01*
X128825230Y-91401572D01*
X128806820Y-91446017D01*
X128802385Y-91468309D01*
X128800000Y-91492531D01*
X128800000Y-92225473D01*
X105200000Y-92225473D01*
X105200000Y-91492531D01*
X105197615Y-91468309D01*
X105193180Y-91446017D01*
X105174770Y-91401572D01*
X105157818Y-91376201D01*
X105123799Y-91342182D01*
X105098428Y-91325230D01*
X105053983Y-91306820D01*
X105031691Y-91302385D01*
X105007469Y-91300000D01*
X103024527Y-91300000D01*
X103004069Y-91304069D01*
X103000000Y-91324527D01*
X103000000Y-92225473D01*
X102500000Y-92225473D01*
X102500000Y-91324527D01*
X102495931Y-91304069D01*
X102475473Y-91300000D01*
X100749000Y-91300000D01*
X100653712Y-91281046D01*
X100572930Y-91227070D01*
X100568038Y-91219748D01*
X110399500Y-91219748D01*
X110411133Y-91278231D01*
X110455448Y-91344552D01*
X110521769Y-91388867D01*
X110545818Y-91393651D01*
X110545819Y-91393651D01*
X110568261Y-91398115D01*
X110568263Y-91398115D01*
X110580252Y-91400500D01*
X113019748Y-91400500D01*
X113031737Y-91398115D01*
X113031739Y-91398115D01*
X113054181Y-91393651D01*
X113054182Y-91393651D01*
X113078231Y-91388867D01*
X113144552Y-91344552D01*
X113188867Y-91278231D01*
X113200500Y-91219748D01*
X113200500Y-89965665D01*
X117895119Y-89965665D01*
X117908376Y-90195580D01*
X117910623Y-90205548D01*
X117910623Y-90205552D01*
X117928943Y-90286841D01*
X117959006Y-90420242D01*
X118045649Y-90633618D01*
X118165979Y-90829978D01*
X118172663Y-90837695D01*
X118172668Y-90837701D01*
X118242243Y-90918020D01*
X118316763Y-91004048D01*
X118493953Y-91151154D01*
X118692790Y-91267345D01*
X118784550Y-91302385D01*
X118888768Y-91342182D01*
X118907934Y-91349501D01*
X119133607Y-91395414D01*
X119244329Y-91399474D01*
X119353537Y-91403479D01*
X119353543Y-91403479D01*
X119363749Y-91403853D01*
X119373880Y-91402555D01*
X119373885Y-91402555D01*
X119496058Y-91386904D01*
X119592178Y-91374591D01*
X119601962Y-91371656D01*
X119601965Y-91371655D01*
X119802972Y-91311350D01*
X119802974Y-91311349D01*
X119812761Y-91308413D01*
X119821936Y-91303918D01*
X119821939Y-91303917D01*
X119923462Y-91254181D01*
X120019574Y-91207096D01*
X120207062Y-91073363D01*
X120370190Y-90910803D01*
X120428269Y-90829978D01*
X120498611Y-90732085D01*
X120504577Y-90723783D01*
X120606615Y-90517325D01*
X120673563Y-90296975D01*
X120703622Y-90068649D01*
X120705300Y-90000000D01*
X120686430Y-89770478D01*
X120675467Y-89726830D01*
X120632817Y-89557036D01*
X120632816Y-89557033D01*
X120630326Y-89547120D01*
X120538496Y-89335924D01*
X120413405Y-89142563D01*
X120258412Y-88972229D01*
X120077681Y-88829496D01*
X119876065Y-88718198D01*
X119866439Y-88714789D01*
X119866434Y-88714787D01*
X119668608Y-88644733D01*
X119668606Y-88644732D01*
X119658978Y-88641323D01*
X119432250Y-88600937D01*
X119422028Y-88600812D01*
X119422027Y-88600812D01*
X119283389Y-88599118D01*
X119201971Y-88598123D01*
X119191870Y-88599669D01*
X119191865Y-88599669D01*
X119034188Y-88623798D01*
X118974325Y-88632958D01*
X118964611Y-88636133D01*
X118964607Y-88636134D01*
X118790076Y-88693180D01*
X118755424Y-88704506D01*
X118746357Y-88709226D01*
X118609918Y-88780252D01*
X118551149Y-88810845D01*
X118366984Y-88949119D01*
X118359925Y-88956506D01*
X118214945Y-89108219D01*
X118214941Y-89108224D01*
X118207877Y-89115616D01*
X118078099Y-89305863D01*
X117981136Y-89514752D01*
X117919592Y-89736673D01*
X117895119Y-89965665D01*
X113200500Y-89965665D01*
X113200500Y-88780252D01*
X113188867Y-88721769D01*
X113144552Y-88655448D01*
X113078231Y-88611133D01*
X113054182Y-88606349D01*
X113054181Y-88606349D01*
X113031739Y-88601885D01*
X113031737Y-88601885D01*
X113019748Y-88599500D01*
X110580252Y-88599500D01*
X110568263Y-88601885D01*
X110568261Y-88601885D01*
X110545819Y-88606349D01*
X110545818Y-88606349D01*
X110521769Y-88611133D01*
X110455448Y-88655448D01*
X110411133Y-88721769D01*
X110399500Y-88780252D01*
X110399500Y-91219748D01*
X100568038Y-91219748D01*
X100518954Y-91146288D01*
X100500000Y-91051000D01*
X100500000Y-88949000D01*
X100518954Y-88853712D01*
X100572930Y-88772930D01*
X100653712Y-88718954D01*
X100749000Y-88700000D01*
X102475473Y-88700000D01*
X102495931Y-88695931D01*
X102500000Y-88675473D01*
X103000000Y-88675473D01*
X103004069Y-88695931D01*
X103024527Y-88700000D01*
X105007469Y-88700000D01*
X105031691Y-88697615D01*
X105053983Y-88693180D01*
X105098428Y-88674770D01*
X105123799Y-88657818D01*
X105157818Y-88623799D01*
X105174770Y-88598428D01*
X105193180Y-88553983D01*
X105197615Y-88531691D01*
X105200000Y-88507469D01*
X128800000Y-88507469D01*
X128802385Y-88531691D01*
X128806820Y-88553983D01*
X128825230Y-88598428D01*
X128842182Y-88623799D01*
X128876201Y-88657818D01*
X128901572Y-88674770D01*
X128946017Y-88693180D01*
X128968309Y-88697615D01*
X128992531Y-88700000D01*
X130975473Y-88700000D01*
X130995931Y-88695931D01*
X131000000Y-88675473D01*
X131000000Y-87774527D01*
X130995931Y-87754069D01*
X130975473Y-87750000D01*
X128824527Y-87750000D01*
X128804069Y-87754069D01*
X128800000Y-87774527D01*
X128800000Y-88507469D01*
X105200000Y-88507469D01*
X105200000Y-87774527D01*
X105195931Y-87754069D01*
X105175473Y-87750000D01*
X103024527Y-87750000D01*
X103004069Y-87754069D01*
X103000000Y-87774527D01*
X103000000Y-88675473D01*
X102500000Y-88675473D01*
X102500000Y-87225473D01*
X103000000Y-87225473D01*
X103004069Y-87245931D01*
X103024527Y-87250000D01*
X105175473Y-87250000D01*
X105195931Y-87245931D01*
X105200000Y-87225473D01*
X128800000Y-87225473D01*
X128804069Y-87245931D01*
X128824527Y-87250000D01*
X130975473Y-87250000D01*
X130995931Y-87245931D01*
X131000000Y-87225473D01*
X131000000Y-86324527D01*
X130995931Y-86304069D01*
X130975473Y-86300000D01*
X128992531Y-86300000D01*
X128968309Y-86302385D01*
X128946017Y-86306820D01*
X128901572Y-86325230D01*
X128876201Y-86342182D01*
X128842182Y-86376201D01*
X128825230Y-86401572D01*
X128806820Y-86446017D01*
X128802385Y-86468309D01*
X128800000Y-86492531D01*
X128800000Y-87225473D01*
X105200000Y-87225473D01*
X105200000Y-86492531D01*
X105197615Y-86468309D01*
X105193180Y-86446017D01*
X105174770Y-86401572D01*
X105157818Y-86376201D01*
X105123799Y-86342182D01*
X105098428Y-86325230D01*
X105053983Y-86306820D01*
X105031691Y-86302385D01*
X105007469Y-86300000D01*
X103024527Y-86300000D01*
X103004069Y-86304069D01*
X103000000Y-86324527D01*
X103000000Y-87225473D01*
X102500000Y-87225473D01*
X102500000Y-86324527D01*
X102495931Y-86304069D01*
X102475473Y-86300000D01*
X100749000Y-86300000D01*
X100653712Y-86281046D01*
X100572930Y-86227070D01*
X100518954Y-86146288D01*
X100500000Y-86051000D01*
X100500000Y-82749000D01*
X100518954Y-82653712D01*
X100572930Y-82572930D01*
X100653712Y-82518954D01*
X100749000Y-82500000D01*
X133251000Y-82500000D01*
X133346288Y-82518954D01*
G37*
%TD.AperFunction*%
%TD*%
M02*
