%TF.GenerationSoftware,KiCad,Pcbnew,(6.0.6)*%
%TF.CreationDate,2023-03-09T17:56:09+01:00*%
%TF.ProjectId,dc_block,64635f62-6c6f-4636-9b2e-6b696361645f,rev?*%
%TF.SameCoordinates,Original*%
%TF.FileFunction,Copper,L1,Top*%
%TF.FilePolarity,Positive*%
%FSLAX46Y46*%
G04 Gerber Fmt 4.6, Leading zero omitted, Abs format (unit mm)*
G04 Created by KiCad (PCBNEW (6.0.6)) date 2023-03-09 17:56:09*
%MOMM*%
%LPD*%
G01*
G04 APERTURE LIST*
G04 Aperture macros list*
%AMRoundRect*
0 Rectangle with rounded corners*
0 $1 Rounding radius*
0 $2 $3 $4 $5 $6 $7 $8 $9 X,Y pos of 4 corners*
0 Add a 4 corners polygon primitive as box body*
4,1,4,$2,$3,$4,$5,$6,$7,$8,$9,$2,$3,0*
0 Add four circle primitives for the rounded corners*
1,1,$1+$1,$2,$3*
1,1,$1+$1,$4,$5*
1,1,$1+$1,$6,$7*
1,1,$1+$1,$8,$9*
0 Add four rect primitives between the rounded corners*
20,1,$1+$1,$2,$3,$4,$5,0*
20,1,$1+$1,$4,$5,$6,$7,0*
20,1,$1+$1,$6,$7,$8,$9,0*
20,1,$1+$1,$8,$9,$2,$3,0*%
G04 Aperture macros list end*
%TA.AperFunction,SMDPad,CuDef*%
%ADD10RoundRect,0.250000X-0.450000X0.262500X-0.450000X-0.262500X0.450000X-0.262500X0.450000X0.262500X0*%
%TD*%
%TA.AperFunction,SMDPad,CuDef*%
%ADD11R,0.300000X0.550000*%
%TD*%
%TA.AperFunction,SMDPad,CuDef*%
%ADD12R,1.700000X0.500000*%
%TD*%
%TA.AperFunction,ComponentPad*%
%ADD13R,2.400000X2.400000*%
%TD*%
%TA.AperFunction,ComponentPad*%
%ADD14C,2.400000*%
%TD*%
%TA.AperFunction,SMDPad,CuDef*%
%ADD15R,4.500000X1.200000*%
%TD*%
%TA.AperFunction,SMDPad,CuDef*%
%ADD16R,4.500000X2.000000*%
%TD*%
%TA.AperFunction,ViaPad*%
%ADD17C,0.500000*%
%TD*%
%TA.AperFunction,ViaPad*%
%ADD18C,0.800000*%
%TD*%
%TA.AperFunction,Conductor*%
%ADD19C,0.750000*%
%TD*%
%TA.AperFunction,Conductor*%
%ADD20C,0.500000*%
%TD*%
%TA.AperFunction,Conductor*%
%ADD21C,2.000000*%
%TD*%
%TA.AperFunction,Conductor*%
%ADD22C,1.000000*%
%TD*%
G04 APERTURE END LIST*
D10*
%TO.P,R1,1*%
%TO.N,Net-(C1-Pad1)*%
X106250000Y-90037500D03*
%TO.P,R1,2*%
%TO.N,GND*%
X106250000Y-91862500D03*
%TD*%
D11*
%TO.P,D2,1,A*%
%TO.N,Net-(C1-Pad2)*%
X125000000Y-90875000D03*
D12*
%TO.P,D2,2,K*%
%TO.N,GND*%
X125000000Y-90000000D03*
D11*
%TO.P,D2,3,A*%
%TO.N,Net-(C1-Pad2)*%
X125000000Y-89125000D03*
%TD*%
%TO.P,D1,1,A*%
%TO.N,GND*%
X127600000Y-90875000D03*
D12*
%TO.P,D1,2,K*%
%TO.N,Net-(C1-Pad2)*%
X127600000Y-90000000D03*
D11*
%TO.P,D1,3,A*%
%TO.N,GND*%
X127600000Y-89125000D03*
%TD*%
D13*
%TO.P,C1,1*%
%TO.N,Net-(C1-Pad1)*%
X111800000Y-90000000D03*
D14*
%TO.P,C1,2*%
%TO.N,Net-(C1-Pad2)*%
X119300000Y-90000000D03*
%TD*%
D15*
%TO.P,J1,1,In*%
%TO.N,Net-(C1-Pad1)*%
X102750000Y-90000000D03*
D16*
%TO.P,J1,2,Ext*%
%TO.N,GND*%
X102750000Y-87500000D03*
X102750000Y-92500000D03*
%TD*%
%TO.P,J2,2,Ext*%
%TO.N,GND*%
X131250000Y-87500000D03*
X131250000Y-92500000D03*
D15*
%TO.P,J2,1,In*%
%TO.N,Net-(C1-Pad2)*%
X131250000Y-90000000D03*
%TD*%
D17*
%TO.N,GND*%
X127600000Y-91400000D03*
X127600000Y-88600000D03*
X124400000Y-90000000D03*
X125600000Y-90000000D03*
X125000000Y-90000000D03*
D18*
X131250000Y-94000000D03*
X128400000Y-92500000D03*
X131250000Y-86000000D03*
X104500000Y-86000000D03*
X102750000Y-86000000D03*
X104500000Y-94000000D03*
X102750000Y-94000000D03*
X133000000Y-94000000D03*
X101000000Y-94000000D03*
X133000000Y-86000000D03*
X105600000Y-87800000D03*
X101000000Y-86000000D03*
X129500000Y-94000000D03*
X129500000Y-86000000D03*
X128400000Y-87800000D03*
%TD*%
D19*
%TO.N,Net-(C1-Pad2)*%
X127600000Y-90000000D02*
X131250000Y-90000000D01*
D20*
%TO.N,GND*%
X127600000Y-90875000D02*
X127600000Y-91400000D01*
X127600000Y-89125000D02*
X127600000Y-88600000D01*
D19*
%TO.N,Net-(C1-Pad2)*%
X120175000Y-90875000D02*
X119300000Y-90000000D01*
X125000000Y-90875000D02*
X120175000Y-90875000D01*
X120175000Y-89125000D02*
X119300000Y-90000000D01*
X125000000Y-89125000D02*
X120175000Y-89125000D01*
D20*
%TO.N,GND*%
X125000000Y-90000000D02*
X124400000Y-90000000D01*
X125000000Y-90000000D02*
X125600000Y-90000000D01*
D19*
%TO.N,Net-(C1-Pad2)*%
X126125000Y-89125000D02*
X126700000Y-89700000D01*
X127000000Y-90000000D02*
X127600000Y-90000000D01*
X125000000Y-89125000D02*
X126125000Y-89125000D01*
X126700000Y-89700000D02*
X127000000Y-90000000D01*
X126125000Y-90875000D02*
X127000000Y-90000000D01*
X125000000Y-90875000D02*
X126125000Y-90875000D01*
D21*
%TO.N,Net-(C1-Pad1)*%
X111762500Y-90037500D02*
X111800000Y-90000000D01*
X106250000Y-90037500D02*
X111762500Y-90037500D01*
D22*
X102750000Y-90000000D02*
X106212500Y-90000000D01*
X106212500Y-90000000D02*
X106250000Y-90037500D01*
%TO.N,GND*%
X103250000Y-92000000D02*
X102750000Y-92500000D01*
X106112500Y-92000000D02*
X103250000Y-92000000D01*
X106250000Y-91862500D02*
X106112500Y-92000000D01*
X131250000Y-92500000D02*
X131250000Y-94000000D01*
X129500000Y-94000000D02*
X129500000Y-92200000D01*
X129500000Y-92200000D02*
X131000000Y-92200000D01*
X131250000Y-92500000D02*
X128400000Y-92500000D01*
X131000000Y-87800000D02*
X128400000Y-87800000D01*
X131250000Y-87500000D02*
X131250000Y-86000000D01*
X129500000Y-87800000D02*
X131000000Y-87800000D01*
X129500000Y-86000000D02*
X129500000Y-87800000D01*
X103050000Y-87800000D02*
X105600000Y-87800000D01*
X104500000Y-87500000D02*
X104500000Y-86000000D01*
X102750000Y-87500000D02*
X104500000Y-87500000D01*
X102750000Y-87500000D02*
X102750000Y-86000000D01*
X102750000Y-92500000D02*
X104500000Y-92500000D01*
X104500000Y-92500000D02*
X104500000Y-94000000D01*
X102750000Y-92500000D02*
X102750000Y-94000000D01*
X101000000Y-92200000D02*
X101000000Y-94000000D01*
X103050000Y-92200000D02*
X101000000Y-92200000D01*
X101000000Y-87800000D02*
X101000000Y-86000000D01*
X103050000Y-87800000D02*
X101000000Y-87800000D01*
X133000000Y-92200000D02*
X131000000Y-92200000D01*
X133000000Y-94000000D02*
X133000000Y-92200000D01*
X133000000Y-87800000D02*
X131000000Y-87800000D01*
X133000000Y-86000000D02*
X133000000Y-87800000D01*
X103050000Y-92200000D02*
X103300000Y-92200000D01*
X103050000Y-87800000D02*
X103350000Y-87800000D01*
%TD*%
M02*
