M48
; DRILL file {KiCad (6.0.6)} date Thu Mar  9 17:56:14 2023
; FORMAT={-:-/ absolute / metric / decimal}
; #@! TF.CreationDate,2023-03-09T17:56:14+01:00
; #@! TF.GenerationSoftware,Kicad,Pcbnew,(6.0.6)
; #@! TF.FileFunction,MixedPlating,1,2
FMAT,2
METRIC
; #@! TA.AperFunction,Plated,PTH,ViaDrill
T1C0.200
; #@! TA.AperFunction,Plated,PTH,ViaDrill
T2C0.400
; #@! TA.AperFunction,Plated,PTH,ComponentDrill
T3C1.200
%
G90
G05
T1
X124.4Y-90.0
X125.0Y-90.0
X125.6Y-90.0
X127.6Y-88.6
X127.6Y-91.4
T2
X101.0Y-86.0
X101.0Y-94.0
X102.75Y-86.0
X102.75Y-94.0
X104.5Y-86.0
X104.5Y-94.0
X105.6Y-87.8
X128.4Y-87.8
X128.4Y-92.5
X129.5Y-86.0
X129.5Y-94.0
X131.25Y-86.0
X131.25Y-94.0
X133.0Y-86.0
X133.0Y-94.0
T3
X111.8Y-90.0
X119.3Y-90.0
T0
M30
