%TF.GenerationSoftware,KiCad,Pcbnew,(6.0.6)*%
%TF.CreationDate,2023-03-09T17:56:09+01:00*%
%TF.ProjectId,dc_block,64635f62-6c6f-4636-9b2e-6b696361645f,rev?*%
%TF.SameCoordinates,Original*%
%TF.FileFunction,Legend,Top*%
%TF.FilePolarity,Positive*%
%FSLAX46Y46*%
G04 Gerber Fmt 4.6, Leading zero omitted, Abs format (unit mm)*
G04 Created by KiCad (PCBNEW (6.0.6)) date 2023-03-09 17:56:09*
%MOMM*%
%LPD*%
G01*
G04 APERTURE LIST*
%ADD10C,0.500000*%
%ADD11C,0.150000*%
%ADD12C,0.120000*%
G04 APERTURE END LIST*
D10*
X101952380Y-96904761D02*
X101952380Y-94904761D01*
X102904761Y-96904761D02*
X102904761Y-94904761D01*
X104047619Y-96904761D01*
X104047619Y-94904761D01*
X129000000Y-94904761D02*
X129380952Y-94904761D01*
X129571428Y-95000000D01*
X129761904Y-95190476D01*
X129857142Y-95571428D01*
X129857142Y-96238095D01*
X129761904Y-96619047D01*
X129571428Y-96809523D01*
X129380952Y-96904761D01*
X129000000Y-96904761D01*
X128809523Y-96809523D01*
X128619047Y-96619047D01*
X128523809Y-96238095D01*
X128523809Y-95571428D01*
X128619047Y-95190476D01*
X128809523Y-95000000D01*
X129000000Y-94904761D01*
X130714285Y-94904761D02*
X130714285Y-96523809D01*
X130809523Y-96714285D01*
X130904761Y-96809523D01*
X131095238Y-96904761D01*
X131476190Y-96904761D01*
X131666666Y-96809523D01*
X131761904Y-96714285D01*
X131857142Y-96523809D01*
X131857142Y-94904761D01*
X132523809Y-94904761D02*
X133666666Y-94904761D01*
X133095238Y-96904761D02*
X133095238Y-94904761D01*
D11*
%TO.C,R1*%
X108352380Y-91116666D02*
X107876190Y-91450000D01*
X108352380Y-91688095D02*
X107352380Y-91688095D01*
X107352380Y-91307142D01*
X107400000Y-91211904D01*
X107447619Y-91164285D01*
X107542857Y-91116666D01*
X107685714Y-91116666D01*
X107780952Y-91164285D01*
X107828571Y-91211904D01*
X107876190Y-91307142D01*
X107876190Y-91688095D01*
X108352380Y-90164285D02*
X108352380Y-90735714D01*
X108352380Y-90450000D02*
X107352380Y-90450000D01*
X107495238Y-90545238D01*
X107590476Y-90640476D01*
X107638095Y-90735714D01*
%TO.C,D2*%
X123452380Y-90738095D02*
X122452380Y-90738095D01*
X122452380Y-90500000D01*
X122500000Y-90357142D01*
X122595238Y-90261904D01*
X122690476Y-90214285D01*
X122880952Y-90166666D01*
X123023809Y-90166666D01*
X123214285Y-90214285D01*
X123309523Y-90261904D01*
X123404761Y-90357142D01*
X123452380Y-90500000D01*
X123452380Y-90738095D01*
X122547619Y-89785714D02*
X122500000Y-89738095D01*
X122452380Y-89642857D01*
X122452380Y-89404761D01*
X122500000Y-89309523D01*
X122547619Y-89261904D01*
X122642857Y-89214285D01*
X122738095Y-89214285D01*
X122880952Y-89261904D01*
X123452380Y-89833333D01*
X123452380Y-89214285D01*
%TO.C,D1*%
X126052380Y-90738095D02*
X125052380Y-90738095D01*
X125052380Y-90500000D01*
X125100000Y-90357142D01*
X125195238Y-90261904D01*
X125290476Y-90214285D01*
X125480952Y-90166666D01*
X125623809Y-90166666D01*
X125814285Y-90214285D01*
X125909523Y-90261904D01*
X126004761Y-90357142D01*
X126052380Y-90500000D01*
X126052380Y-90738095D01*
X126052380Y-89214285D02*
X126052380Y-89785714D01*
X126052380Y-89500000D02*
X125052380Y-89500000D01*
X125195238Y-89595238D01*
X125290476Y-89690476D01*
X125338095Y-89785714D01*
D12*
%TO.C,R1*%
X106985000Y-90722936D02*
X106985000Y-91177064D01*
X105515000Y-90722936D02*
X105515000Y-91177064D01*
%TO.C,D2*%
X124000000Y-91000000D02*
X124000000Y-89000000D01*
X126000000Y-89000000D02*
X126000000Y-91000000D01*
X126000000Y-91000000D02*
X124000000Y-91000000D01*
X124000000Y-89000000D02*
X126000000Y-89000000D01*
%TO.C,D1*%
X126600000Y-91000000D02*
X126600000Y-89000000D01*
X128600000Y-89000000D02*
X128600000Y-91000000D01*
X128600000Y-91000000D02*
X126600000Y-91000000D01*
X126600000Y-89000000D02*
X128600000Y-89000000D01*
%TO.C,C1*%
X119991000Y-91440000D02*
X119991000Y-96759000D01*
X118911000Y-82647000D02*
X118911000Y-88560000D01*
X117391000Y-82131000D02*
X117391000Y-97869000D01*
X117431000Y-82140000D02*
X117431000Y-97860000D01*
X117471000Y-82150000D02*
X117471000Y-97850000D01*
X119591000Y-91440000D02*
X119591000Y-97004000D01*
X119791000Y-83114000D02*
X119791000Y-88560000D01*
X117231000Y-82095000D02*
X117231000Y-97905000D01*
X119071000Y-82722000D02*
X119071000Y-88560000D01*
X118991000Y-91440000D02*
X118991000Y-97316000D01*
X120751000Y-83803000D02*
X120751000Y-96197000D01*
X117671000Y-82201000D02*
X117671000Y-97799000D01*
X118791000Y-91440000D02*
X118791000Y-97406000D01*
X123351000Y-87782000D02*
X123351000Y-92218000D01*
X119791000Y-91440000D02*
X119791000Y-96886000D01*
X118271000Y-91440000D02*
X118271000Y-97611000D01*
X122431000Y-85727000D02*
X122431000Y-94273000D01*
X119191000Y-91440000D02*
X119191000Y-97219000D01*
X115590000Y-81920000D02*
X115590000Y-98080000D01*
X118551000Y-91440000D02*
X118551000Y-97506000D01*
X120951000Y-83975000D02*
X120951000Y-96025000D01*
X118631000Y-91440000D02*
X118631000Y-97474000D01*
X117511000Y-82160000D02*
X117511000Y-97840000D01*
X122351000Y-85602000D02*
X122351000Y-94398000D01*
X118951000Y-91440000D02*
X118951000Y-97334000D01*
X117991000Y-82295000D02*
X117991000Y-88560000D01*
X120671000Y-91440000D02*
X120671000Y-96263000D01*
X121151000Y-84160000D02*
X121151000Y-95840000D01*
X119551000Y-91440000D02*
X119551000Y-97027000D01*
X121391000Y-84398000D02*
X121391000Y-95602000D01*
X119031000Y-91440000D02*
X119031000Y-97297000D01*
X118351000Y-91440000D02*
X118351000Y-97582000D01*
X123551000Y-88649000D02*
X123551000Y-91351000D01*
X117831000Y-82246000D02*
X117831000Y-97754000D01*
X119151000Y-91440000D02*
X119151000Y-97239000D01*
X119271000Y-91440000D02*
X119271000Y-97178000D01*
X120471000Y-83580000D02*
X120471000Y-88560000D01*
X118311000Y-91440000D02*
X118311000Y-97597000D01*
X119551000Y-82973000D02*
X119551000Y-88560000D01*
X116110000Y-81939000D02*
X116110000Y-98061000D01*
X118111000Y-82334000D02*
X118111000Y-88560000D01*
X119311000Y-91440000D02*
X119311000Y-97157000D01*
X116951000Y-82041000D02*
X116951000Y-97959000D01*
X115830000Y-81924000D02*
X115830000Y-98076000D01*
X121271000Y-84276000D02*
X121271000Y-95724000D01*
X122391000Y-85664000D02*
X122391000Y-94336000D01*
X118951000Y-82666000D02*
X118951000Y-88560000D01*
X121471000Y-84482000D02*
X121471000Y-95518000D01*
X118191000Y-91440000D02*
X118191000Y-97639000D01*
X119391000Y-82885000D02*
X119391000Y-88560000D01*
X107660509Y-84645000D02*
X107660509Y-86245000D01*
X123231000Y-87403000D02*
X123231000Y-92597000D01*
X120151000Y-83348000D02*
X120151000Y-88560000D01*
X117951000Y-82282000D02*
X117951000Y-88560000D01*
X118911000Y-91440000D02*
X118911000Y-97353000D01*
X119751000Y-83090000D02*
X119751000Y-88560000D01*
X118511000Y-82478000D02*
X118511000Y-88560000D01*
X117271000Y-82104000D02*
X117271000Y-97896000D01*
X119871000Y-83164000D02*
X119871000Y-88560000D01*
X118791000Y-82594000D02*
X118791000Y-88560000D01*
X122311000Y-85541000D02*
X122311000Y-94459000D01*
X123111000Y-87076000D02*
X123111000Y-92924000D01*
X119951000Y-91440000D02*
X119951000Y-96785000D01*
X120991000Y-84011000D02*
X120991000Y-95989000D01*
X118351000Y-82418000D02*
X118351000Y-88560000D01*
X116351000Y-81959000D02*
X116351000Y-98041000D01*
X116591000Y-81986000D02*
X116591000Y-98014000D01*
X119831000Y-91440000D02*
X119831000Y-96861000D01*
X120271000Y-91440000D02*
X120271000Y-96568000D01*
X120711000Y-83770000D02*
X120711000Y-88560000D01*
X115790000Y-81923000D02*
X115790000Y-98077000D01*
X118751000Y-91440000D02*
X118751000Y-97423000D01*
X117711000Y-82212000D02*
X117711000Y-97788000D01*
X117751000Y-82223000D02*
X117751000Y-97777000D01*
X116030000Y-81934000D02*
X116030000Y-98066000D01*
X121951000Y-85042000D02*
X121951000Y-94958000D01*
X120111000Y-83321000D02*
X120111000Y-88560000D01*
X121911000Y-84991000D02*
X121911000Y-95009000D01*
X118311000Y-82403000D02*
X118311000Y-88560000D01*
X117871000Y-82258000D02*
X117871000Y-88560000D01*
X116070000Y-81936000D02*
X116070000Y-98064000D01*
X120791000Y-83837000D02*
X120791000Y-96163000D01*
X121311000Y-84316000D02*
X121311000Y-95684000D01*
X119431000Y-91440000D02*
X119431000Y-97094000D01*
X123591000Y-88902000D02*
X123591000Y-91098000D01*
X120311000Y-91440000D02*
X120311000Y-96539000D01*
X120551000Y-91440000D02*
X120551000Y-96358000D01*
X118711000Y-82560000D02*
X118711000Y-88560000D01*
X120591000Y-83673000D02*
X120591000Y-88560000D01*
X121631000Y-84657000D02*
X121631000Y-95343000D01*
X118071000Y-82320000D02*
X118071000Y-88560000D01*
X117871000Y-91440000D02*
X117871000Y-97742000D01*
X120231000Y-83404000D02*
X120231000Y-88560000D01*
X118191000Y-82361000D02*
X118191000Y-88560000D01*
X121111000Y-84122000D02*
X121111000Y-95878000D01*
X120031000Y-83267000D02*
X120031000Y-88560000D01*
X119471000Y-91440000D02*
X119471000Y-97072000D01*
X118871000Y-82629000D02*
X118871000Y-88560000D01*
X118431000Y-82447000D02*
X118431000Y-88560000D01*
X115710000Y-81921000D02*
X115710000Y-98079000D01*
X123511000Y-88436000D02*
X123511000Y-91564000D01*
X118431000Y-91440000D02*
X118431000Y-97553000D01*
X121751000Y-84796000D02*
X121751000Y-95204000D01*
X121431000Y-84440000D02*
X121431000Y-95560000D01*
X115750000Y-81922000D02*
X115750000Y-98078000D01*
X122791000Y-86363000D02*
X122791000Y-93637000D01*
X121591000Y-84612000D02*
X121591000Y-95388000D01*
X122751000Y-86285000D02*
X122751000Y-93715000D01*
X122671000Y-86136000D02*
X122671000Y-93864000D01*
X118271000Y-82389000D02*
X118271000Y-88560000D01*
X117551000Y-82170000D02*
X117551000Y-97830000D01*
X118591000Y-82510000D02*
X118591000Y-88560000D01*
X117151000Y-82079000D02*
X117151000Y-97921000D01*
X121711000Y-84749000D02*
X121711000Y-95251000D01*
X118751000Y-82577000D02*
X118751000Y-88560000D01*
X120831000Y-83871000D02*
X120831000Y-96129000D01*
X116190000Y-81945000D02*
X116190000Y-98055000D01*
X120031000Y-91440000D02*
X120031000Y-96733000D01*
X120351000Y-91440000D02*
X120351000Y-96510000D01*
X119631000Y-83019000D02*
X119631000Y-88560000D01*
X119511000Y-91440000D02*
X119511000Y-97049000D01*
X123031000Y-86880000D02*
X123031000Y-93120000D01*
X119191000Y-82781000D02*
X119191000Y-88560000D01*
X116991000Y-82048000D02*
X116991000Y-97952000D01*
X120631000Y-83705000D02*
X120631000Y-88560000D01*
X122151000Y-85309000D02*
X122151000Y-94691000D01*
X121551000Y-84568000D02*
X121551000Y-95432000D01*
X122711000Y-86210000D02*
X122711000Y-93790000D01*
X120071000Y-91440000D02*
X120071000Y-96706000D01*
X116230000Y-81948000D02*
X116230000Y-98052000D01*
X117311000Y-82113000D02*
X117311000Y-97887000D01*
X121231000Y-84237000D02*
X121231000Y-95763000D01*
X116711000Y-82003000D02*
X116711000Y-97997000D01*
X119311000Y-82843000D02*
X119311000Y-88560000D01*
X119871000Y-91440000D02*
X119871000Y-96836000D01*
X120511000Y-83610000D02*
X120511000Y-88560000D01*
X123311000Y-87649000D02*
X123311000Y-92351000D01*
X118831000Y-82611000D02*
X118831000Y-88560000D01*
X122951000Y-86697000D02*
X122951000Y-93303000D01*
X118111000Y-91440000D02*
X118111000Y-97666000D01*
X118991000Y-82684000D02*
X118991000Y-88560000D01*
X120431000Y-91440000D02*
X120431000Y-96450000D01*
X118711000Y-91440000D02*
X118711000Y-97440000D01*
X115630000Y-81920000D02*
X115630000Y-98080000D01*
X119431000Y-82906000D02*
X119431000Y-88560000D01*
X119111000Y-91440000D02*
X119111000Y-97258000D01*
X118551000Y-82494000D02*
X118551000Y-88560000D01*
X118631000Y-82526000D02*
X118631000Y-88560000D01*
X119071000Y-91440000D02*
X119071000Y-97278000D01*
X120311000Y-83461000D02*
X120311000Y-88560000D01*
X117911000Y-82270000D02*
X117911000Y-88560000D01*
X122831000Y-86443000D02*
X122831000Y-93557000D01*
X120391000Y-91440000D02*
X120391000Y-96480000D01*
X122191000Y-85366000D02*
X122191000Y-94634000D01*
X118031000Y-91440000D02*
X118031000Y-97693000D01*
X122551000Y-85924000D02*
X122551000Y-94076000D01*
X117991000Y-91440000D02*
X117991000Y-97705000D01*
X119111000Y-82742000D02*
X119111000Y-88560000D01*
X116671000Y-81997000D02*
X116671000Y-98003000D01*
X120551000Y-83642000D02*
X120551000Y-88560000D01*
X121671000Y-84703000D02*
X121671000Y-95297000D01*
X120191000Y-83376000D02*
X120191000Y-88560000D01*
X119751000Y-91440000D02*
X119751000Y-96910000D01*
X119351000Y-91440000D02*
X119351000Y-97136000D01*
X120871000Y-83905000D02*
X120871000Y-96095000D01*
X122511000Y-85857000D02*
X122511000Y-94143000D01*
X119231000Y-91440000D02*
X119231000Y-97199000D01*
X122071000Y-85200000D02*
X122071000Y-94800000D01*
X120151000Y-91440000D02*
X120151000Y-96652000D01*
X116631000Y-81992000D02*
X116631000Y-98008000D01*
X117071000Y-82063000D02*
X117071000Y-97937000D01*
X115950000Y-81929000D02*
X115950000Y-98071000D01*
X121511000Y-84525000D02*
X121511000Y-95475000D01*
X119591000Y-82996000D02*
X119591000Y-88560000D01*
X118871000Y-91440000D02*
X118871000Y-97371000D01*
X119031000Y-82703000D02*
X119031000Y-88560000D01*
X117111000Y-82071000D02*
X117111000Y-97929000D01*
X118591000Y-91440000D02*
X118591000Y-97490000D01*
X117191000Y-82087000D02*
X117191000Y-97913000D01*
X120911000Y-83940000D02*
X120911000Y-96060000D01*
X116431000Y-81967000D02*
X116431000Y-98033000D01*
X122591000Y-85993000D02*
X122591000Y-94007000D01*
X118671000Y-82543000D02*
X118671000Y-88560000D01*
X119991000Y-83241000D02*
X119991000Y-88560000D01*
X121071000Y-84084000D02*
X121071000Y-95916000D01*
X122471000Y-85791000D02*
X122471000Y-94209000D01*
X121871000Y-84941000D02*
X121871000Y-95059000D01*
X122271000Y-85481000D02*
X122271000Y-94519000D01*
X119631000Y-91440000D02*
X119631000Y-96981000D01*
X122631000Y-86064000D02*
X122631000Y-93936000D01*
X120591000Y-91440000D02*
X120591000Y-96327000D01*
X121991000Y-85094000D02*
X121991000Y-94906000D01*
X118151000Y-91440000D02*
X118151000Y-97653000D01*
X118511000Y-91440000D02*
X118511000Y-97522000D01*
X116871000Y-82028000D02*
X116871000Y-97972000D01*
X120511000Y-91440000D02*
X120511000Y-96390000D01*
X119831000Y-83139000D02*
X119831000Y-88560000D01*
X117591000Y-82180000D02*
X117591000Y-97820000D01*
X116471000Y-81972000D02*
X116471000Y-98028000D01*
X118471000Y-82463000D02*
X118471000Y-88560000D01*
X118031000Y-82307000D02*
X118031000Y-88560000D01*
X116271000Y-81951000D02*
X116271000Y-98049000D01*
X121031000Y-84048000D02*
X121031000Y-95952000D01*
X119671000Y-91440000D02*
X119671000Y-96958000D01*
X120431000Y-83550000D02*
X120431000Y-88560000D01*
X121191000Y-84198000D02*
X121191000Y-95802000D01*
X120071000Y-83294000D02*
X120071000Y-88560000D01*
X118231000Y-91440000D02*
X118231000Y-97625000D01*
X123191000Y-87289000D02*
X123191000Y-92711000D01*
X122911000Y-86610000D02*
X122911000Y-93390000D01*
X118391000Y-82432000D02*
X118391000Y-88560000D01*
X117351000Y-82122000D02*
X117351000Y-97878000D01*
X119231000Y-82801000D02*
X119231000Y-88560000D01*
X120191000Y-91440000D02*
X120191000Y-96624000D01*
X117791000Y-82235000D02*
X117791000Y-97765000D01*
X120631000Y-91440000D02*
X120631000Y-96295000D01*
X122031000Y-85146000D02*
X122031000Y-94854000D01*
X119471000Y-82928000D02*
X119471000Y-88560000D01*
X120111000Y-91440000D02*
X120111000Y-96679000D01*
X120711000Y-91440000D02*
X120711000Y-96230000D01*
X116551000Y-81981000D02*
X116551000Y-98019000D01*
X115870000Y-81926000D02*
X115870000Y-98074000D01*
X118831000Y-91440000D02*
X118831000Y-97389000D01*
X118151000Y-82347000D02*
X118151000Y-88560000D01*
X117631000Y-82190000D02*
X117631000Y-97810000D01*
X120471000Y-91440000D02*
X120471000Y-96420000D01*
X117951000Y-91440000D02*
X117951000Y-97718000D01*
X122231000Y-85423000D02*
X122231000Y-94577000D01*
X116751000Y-82009000D02*
X116751000Y-97991000D01*
X123151000Y-87180000D02*
X123151000Y-92820000D01*
X116791000Y-82015000D02*
X116791000Y-97985000D01*
X115550000Y-81919000D02*
X115550000Y-98081000D01*
X117911000Y-91440000D02*
X117911000Y-97730000D01*
X116911000Y-82034000D02*
X116911000Y-97966000D01*
X115990000Y-81931000D02*
X115990000Y-98069000D01*
X119711000Y-83066000D02*
X119711000Y-88560000D01*
X119911000Y-83189000D02*
X119911000Y-88560000D01*
X116150000Y-81942000D02*
X116150000Y-98058000D01*
X123631000Y-89235000D02*
X123631000Y-90765000D01*
X117031000Y-82056000D02*
X117031000Y-97944000D01*
X116391000Y-81963000D02*
X116391000Y-98037000D01*
X119951000Y-83215000D02*
X119951000Y-88560000D01*
X123431000Y-88080000D02*
X123431000Y-91920000D01*
X118671000Y-91440000D02*
X118671000Y-97457000D01*
X119671000Y-83042000D02*
X119671000Y-88560000D01*
X119391000Y-91440000D02*
X119391000Y-97115000D01*
X123271000Y-87522000D02*
X123271000Y-92478000D01*
X106860509Y-85445000D02*
X108460509Y-85445000D01*
X122991000Y-86787000D02*
X122991000Y-93213000D01*
X120271000Y-83432000D02*
X120271000Y-88560000D01*
X122111000Y-85254000D02*
X122111000Y-94746000D01*
X120231000Y-91440000D02*
X120231000Y-96596000D01*
X119511000Y-82951000D02*
X119511000Y-88560000D01*
X122871000Y-86525000D02*
X122871000Y-93475000D01*
X120671000Y-83737000D02*
X120671000Y-88560000D01*
X119351000Y-82864000D02*
X119351000Y-88560000D01*
X115910000Y-81927000D02*
X115910000Y-98073000D01*
X116311000Y-81955000D02*
X116311000Y-98045000D01*
X116831000Y-82021000D02*
X116831000Y-97979000D01*
X120391000Y-83520000D02*
X120391000Y-88560000D01*
X121831000Y-84892000D02*
X121831000Y-95108000D01*
X118071000Y-91440000D02*
X118071000Y-97680000D01*
X123471000Y-88248000D02*
X123471000Y-91752000D01*
X119911000Y-91440000D02*
X119911000Y-96811000D01*
X116511000Y-81976000D02*
X116511000Y-98024000D01*
X123391000Y-87926000D02*
X123391000Y-92074000D01*
X115670000Y-81920000D02*
X115670000Y-98080000D01*
X120351000Y-83490000D02*
X120351000Y-88560000D01*
X118391000Y-91440000D02*
X118391000Y-97568000D01*
X123071000Y-86976000D02*
X123071000Y-93024000D01*
X121791000Y-84844000D02*
X121791000Y-95156000D01*
X119271000Y-82822000D02*
X119271000Y-88560000D01*
X118231000Y-82375000D02*
X118231000Y-88560000D01*
X118471000Y-91440000D02*
X118471000Y-97537000D01*
X119151000Y-82761000D02*
X119151000Y-88560000D01*
X121351000Y-84357000D02*
X121351000Y-95643000D01*
X119711000Y-91440000D02*
X119711000Y-96934000D01*
X123670000Y-90000000D02*
G75*
G03*
X123670000Y-90000000I-8120000J0D01*
G01*
%TO.C,J1*%
X100500000Y-92250000D02*
X100500000Y-93500000D01*
X105000000Y-86500000D02*
X100500000Y-86500000D01*
X100500000Y-93500000D02*
X105000000Y-93500000D01*
X91000000Y-87750000D02*
X91000000Y-92250000D01*
X100500000Y-86500000D02*
X100500000Y-87750000D01*
X91000000Y-92250000D02*
X100500000Y-92250000D01*
X105000000Y-93500000D02*
X105000000Y-86500000D01*
X100500000Y-87750000D02*
X91000000Y-87750000D01*
%TO.C,J2*%
X133500000Y-92250000D02*
X143000000Y-92250000D01*
X129000000Y-86500000D02*
X129000000Y-93500000D01*
X143000000Y-87750000D02*
X133500000Y-87750000D01*
X133500000Y-93500000D02*
X133500000Y-92250000D01*
X143000000Y-92250000D02*
X143000000Y-87750000D01*
X133500000Y-86500000D02*
X129000000Y-86500000D01*
X129000000Y-93500000D02*
X133500000Y-93500000D01*
X133500000Y-87750000D02*
X133500000Y-86500000D01*
%TD*%
M02*
